<?xml version="1.0" encoding="UTF-8" standalone="no"?><svg xmlns="http://www.w3.org/2000/svg" xmlns:xlink="http://www.w3.org/1999/xlink" contentScriptType="application/ecmascript" contentStyleType="text/css" height="499px" preserveAspectRatio="none" style="width:631px;height:499px;" version="1.1" viewBox="0 0 631 499" width="631px" zoomAndPan="magnify"><defs><filter height="300%" id="f17q7guomne3v4" width="300%" x="-1" y="-1"><feGaussianBlur result="blurOut" stdDeviation="2.0"/><feColorMatrix in="blurOut" result="blurOut2" type="matrix" values="0 0 0 0 0 0 0 0 0 0 0 0 0 0 0 0 0 0 .4 0"/><feOffset dx="4.0" dy="4.0" in="blurOut2" result="blurOut3"/><feBlend in="SourceGraphic" in2="blurOut3" mode="normal"/></filter></defs><g><!--MD5=[3ac097e75fc7a252e3993e40f921ba66]
class PumpSystem--><rect codeLine="2" fill="#FEFECE" filter="url(#f17q7guomne3v4)" height="258.0078" id="PumpSystem" style="stroke:#A80036;stroke-width:1.5;" width="112" x="254" y="207"/><ellipse cx="269" cy="225.9688" fill="#5BBF09" rx="11" ry="11" style="stroke:#A80036;stroke-width:1.0;"/><path d="M269.8438,232.7188 L267.3906,232.7188 L267.3906,222.4688 L264.25,222.4688 L264.25,220.3281 L272.9844,220.3281 L272.9844,222.4688 L269.8438,222.4688 L269.8438,232.7188 Z " fill="#000000"/><text fill="#000000" font-family="sans-serif" font-size="12" font-style="italic" lengthAdjust="spacing" textLength="35" x="305.5" y="223.1387">«PIM»</text><text fill="#000000" font-family="sans-serif" font-size="12" lengthAdjust="spacing" textLength="80" x="283" y="237.1074">PumpSystem</text><line style="stroke:#A80036;stroke-width:1.5;" x1="255" x2="365" y1="244.9375" y2="244.9375"/><text fill="#000000" font-family="sans-serif" font-size="11" lengthAdjust="spacing" textLength="75" x="260" y="275.9526">▶ sensor_ON</text><text fill="#000000" font-family="sans-serif" font-size="11" lengthAdjust="spacing" textLength="79" x="260" y="288.7573">▶ sensor_OFF</text><line style="stroke:#A80036;stroke-width:1.0;stroke-dasharray:1.0,2.0;" x1="255" x2="271" y1="259.3398" y2="259.3398"/><text fill="#000000" font-family="sans-serif" font-size="11" lengthAdjust="spacing" textLength="78" x="271" y="262.6479">▼ Port sbcb ▼</text><line style="stroke:#A80036;stroke-width:1.0;stroke-dasharray:1.0,2.0;" x1="349" x2="365" y1="259.3398" y2="259.3398"/><text fill="#000000" font-family="sans-serif" font-size="11" lengthAdjust="spacing" textLength="75" x="260" y="318.3667">▶ sensor_ON</text><text fill="#000000" font-family="sans-serif" font-size="11" lengthAdjust="spacing" textLength="79" x="260" y="331.1714">▶ sensor_OFF</text><line style="stroke:#A80036;stroke-width:1.0;stroke-dasharray:1.0,2.0;" x1="255" x2="271" y1="301.7539" y2="301.7539"/><text fill="#000000" font-family="sans-serif" font-size="11" lengthAdjust="spacing" textLength="78" x="271" y="305.062">▼ Port sbca ▼</text><line style="stroke:#A80036;stroke-width:1.0;stroke-dasharray:1.0,2.0;" x1="349" x2="365" y1="301.7539" y2="301.7539"/><text fill="#000000" font-family="sans-serif" font-size="11" lengthAdjust="spacing" textLength="75" x="260" y="360.7808">▶ sensor_ON</text><text fill="#000000" font-family="sans-serif" font-size="11" lengthAdjust="spacing" textLength="79" x="260" y="373.5854">▶ sensor_OFF</text><line style="stroke:#A80036;stroke-width:1.0;stroke-dasharray:1.0,2.0;" x1="255" x2="271" y1="344.168" y2="344.168"/><text fill="#000000" font-family="sans-serif" font-size="11" lengthAdjust="spacing" textLength="78" x="271" y="347.4761">▼ Port sacb ▼</text><line style="stroke:#A80036;stroke-width:1.0;stroke-dasharray:1.0,2.0;" x1="349" x2="365" y1="344.168" y2="344.168"/><text fill="#000000" font-family="sans-serif" font-size="11" lengthAdjust="spacing" textLength="75" x="260" y="403.1948">▶ sensor_ON</text><text fill="#000000" font-family="sans-serif" font-size="11" lengthAdjust="spacing" textLength="79" x="260" y="415.9995">▶ sensor_OFF</text><line style="stroke:#A80036;stroke-width:1.0;stroke-dasharray:1.0,2.0;" x1="255" x2="271" y1="386.582" y2="386.582"/><text fill="#000000" font-family="sans-serif" font-size="11" lengthAdjust="spacing" textLength="78" x="271" y="389.8901">▼ Port saca ▼</text><line style="stroke:#A80036;stroke-width:1.0;stroke-dasharray:1.0,2.0;" x1="349" x2="365" y1="386.582" y2="386.582"/><text fill="#000000" font-family="sans-serif" font-size="11" lengthAdjust="spacing" textLength="67" x="260" y="445.6089">◀ pump_ON</text><text fill="#000000" font-family="sans-serif" font-size="11" lengthAdjust="spacing" textLength="71" x="260" y="458.4136">◀ pump_OFF</text><line style="stroke:#A80036;stroke-width:1.0;stroke-dasharray:1.0,2.0;" x1="255" x2="268.5" y1="428.9961" y2="428.9961"/><text fill="#000000" font-family="sans-serif" font-size="11" lengthAdjust="spacing" textLength="83" x="268.5" y="432.3042">▼ Port pump ▼</text><line style="stroke:#A80036;stroke-width:1.0;stroke-dasharray:1.0,2.0;" x1="351.5" x2="365" y1="428.9961" y2="428.9961"/><!--MD5=[c9010b2482425b808f4e9edc26ded801]
class TimerMsgs--><rect codeLine="19" fill="#FEFECE" filter="url(#f17q7guomne3v4)" height="139.5703" id="TimerMsgs" style="stroke:#A80036;stroke-width:1.5;" width="229" x="195.5" y="7"/><ellipse cx="270.75" cy="25.9688" fill="#BC74ED" rx="11" ry="11" style="stroke:#A80036;stroke-width:1.0;"/><path d="M274.9844,21.7344 L269.7031,21.7344 L269.7031,24.4063 L274.5,24.4063 L274.5,26.5625 L269.7031,26.5625 L269.7031,31.9688 L267.2656,31.9688 L267.2656,19.5781 L274.9844,19.5781 L274.9844,21.7344 Z " fill="#000000"/><text fill="#000000" font-family="sans-serif" font-size="12" font-style="italic" lengthAdjust="spacing" textLength="74" x="289.25" y="23.1387">«Fragment»</text><text fill="#000000" font-family="sans-serif" font-size="12" lengthAdjust="spacing" textLength="66" x="293.25" y="37.1074">TimerMsgs</text><line style="stroke:#A80036;stroke-width:1.5;" x1="196.5" x2="423.5" y1="44.9375" y2="44.9375"/><rect fill="#F24D5C" height="6" style="stroke:#C82930;stroke-width:1.0;" width="6" x="203.5" y="69.7422"/><text fill="#000000" font-family="sans-serif" font-size="11" lengthAdjust="spacing" textLength="203" x="215.5" y="75.9526">timer_start(id : UInt8, time : UInt32)</text><rect fill="#F24D5C" height="6" style="stroke:#C82930;stroke-width:1.0;" width="6" x="203.5" y="82.5469"/><text fill="#000000" font-family="sans-serif" font-size="11" lengthAdjust="spacing" textLength="131" x="215.5" y="88.7573">timer_cancel(id : UInt8)</text><rect fill="#F24D5C" height="6" style="stroke:#C82930;stroke-width:1.0;" width="6" x="203.5" y="95.3516"/><text fill="#000000" font-family="sans-serif" font-size="11" lengthAdjust="spacing" textLength="138" x="215.5" y="101.562">timer_timeout(id : UInt8)</text><rect fill="#F24D5C" height="6" style="stroke:#C82930;stroke-width:1.0;" width="6" x="203.5" y="108.1563"/><text fill="#000000" font-family="sans-serif" font-size="11" lengthAdjust="spacing" textLength="59" x="215.5" y="114.3667">ms25_tic()</text><rect fill="#F24D5C" height="6" style="stroke:#C82930;stroke-width:1.0;" width="6" x="203.5" y="120.9609"/><text fill="#000000" font-family="sans-serif" font-size="11" lengthAdjust="spacing" textLength="66" x="215.5" y="127.1714">ms500_tic()</text><rect fill="#F24D5C" height="6" style="stroke:#C82930;stroke-width:1.0;" width="6" x="203.5" y="133.7656"/><text fill="#000000" font-family="sans-serif" font-size="11" lengthAdjust="spacing" textLength="73" x="215.5" y="139.9761">ms1000_tic()</text><line style="stroke:#A80036;stroke-width:1.0;stroke-dasharray:1.0,2.0;" x1="196.5" x2="281" y1="59.3398" y2="59.3398"/><text fill="#000000" font-family="sans-serif" font-size="11" lengthAdjust="spacing" textLength="58" x="281" y="62.6479">Messages</text><line style="stroke:#A80036;stroke-width:1.0;stroke-dasharray:1.0,2.0;" x1="339" x2="423.5" y1="59.3398" y2="59.3398"/><!--MD5=[4410825dd1c8e00111cf877f756f324a]
class SensorMsgs--><rect codeLine="28" fill="#FEFECE" filter="url(#f17q7guomne3v4)" height="88.3516" id="SensorMsgs" style="stroke:#A80036;stroke-width:1.5;" width="108" x="52" y="33"/><ellipse cx="67" cy="51.9688" fill="#BC74ED" rx="11" ry="11" style="stroke:#A80036;stroke-width:1.0;"/><path d="M71.2344,47.7344 L65.9531,47.7344 L65.9531,50.4063 L70.75,50.4063 L70.75,52.5625 L65.9531,52.5625 L65.9531,57.9688 L63.5156,57.9688 L63.5156,45.5781 L71.2344,45.5781 L71.2344,47.7344 Z " fill="#000000"/><text fill="#000000" font-family="sans-serif" font-size="12" font-style="italic" lengthAdjust="spacing" textLength="74" x="82" y="49.1387">«Fragment»</text><text fill="#000000" font-family="sans-serif" font-size="12" lengthAdjust="spacing" textLength="76" x="81" y="63.1074">SensorMsgs</text><line style="stroke:#A80036;stroke-width:1.5;" x1="53" x2="159" y1="70.9375" y2="70.9375"/><rect fill="#F24D5C" height="6" style="stroke:#C82930;stroke-width:1.0;" width="6" x="60" y="95.7422"/><text fill="#000000" font-family="sans-serif" font-size="11" lengthAdjust="spacing" textLength="71" x="72" y="101.9526">sensor_ON()</text><rect fill="#F24D5C" height="6" style="stroke:#C82930;stroke-width:1.0;" width="6" x="60" y="108.5469"/><text fill="#000000" font-family="sans-serif" font-size="11" lengthAdjust="spacing" textLength="75" x="72" y="114.7573">sensor_OFF()</text><line style="stroke:#A80036;stroke-width:1.0;stroke-dasharray:1.0,2.0;" x1="53" x2="77" y1="85.3398" y2="85.3398"/><text fill="#000000" font-family="sans-serif" font-size="11" lengthAdjust="spacing" textLength="58" x="77" y="88.6479">Messages</text><line style="stroke:#A80036;stroke-width:1.0;stroke-dasharray:1.0,2.0;" x1="135" x2="159" y1="85.3398" y2="85.3398"/><!--MD5=[97ee84f313fd3a4f0e0d3729e5217f2e]
class PumpMsgs--><rect codeLine="33" fill="#FEFECE" filter="url(#f17q7guomne3v4)" height="88.3516" id="PumpMsgs" style="stroke:#A80036;stroke-width:1.5;" width="102" x="460" y="33"/><ellipse cx="475" cy="51.9688" fill="#BC74ED" rx="11" ry="11" style="stroke:#A80036;stroke-width:1.0;"/><path d="M479.2344,47.7344 L473.9531,47.7344 L473.9531,50.4063 L478.75,50.4063 L478.75,52.5625 L473.9531,52.5625 L473.9531,57.9688 L471.5156,57.9688 L471.5156,45.5781 L479.2344,45.5781 L479.2344,47.7344 Z " fill="#000000"/><text fill="#000000" font-family="sans-serif" font-size="12" font-style="italic" lengthAdjust="spacing" textLength="74" x="487" y="49.1387">«Fragment»</text><text fill="#000000" font-family="sans-serif" font-size="12" lengthAdjust="spacing" textLength="67" x="490.5" y="63.1074">PumpMsgs</text><line style="stroke:#A80036;stroke-width:1.5;" x1="461" x2="561" y1="70.9375" y2="70.9375"/><rect fill="#F24D5C" height="6" style="stroke:#C82930;stroke-width:1.0;" width="6" x="468" y="95.7422"/><text fill="#000000" font-family="sans-serif" font-size="11" lengthAdjust="spacing" textLength="63" x="480" y="101.9526">pump_ON()</text><rect fill="#F24D5C" height="6" style="stroke:#C82930;stroke-width:1.0;" width="6" x="468" y="108.5469"/><text fill="#000000" font-family="sans-serif" font-size="11" lengthAdjust="spacing" textLength="67" x="480" y="114.7573">pump_OFF()</text><line style="stroke:#A80036;stroke-width:1.0;stroke-dasharray:1.0,2.0;" x1="461" x2="482" y1="85.3398" y2="85.3398"/><text fill="#000000" font-family="sans-serif" font-size="11" lengthAdjust="spacing" textLength="58" x="482" y="88.6479">Messages</text><line style="stroke:#A80036;stroke-width:1.0;stroke-dasharray:1.0,2.0;" x1="540" x2="561" y1="85.3398" y2="85.3398"/><!--MD5=[97d46ae094d28e0d28828e4b8046fed1]
class Sensor--><rect codeLine="38" fill="#FEFECE" filter="url(#f17q7guomne3v4)" height="189.9844" id="Sensor" style="stroke:#A80036;stroke-width:1.5;" width="208" x="7" y="241"/><ellipse cx="84.75" cy="259.9688" fill="#F94918" rx="11" ry="11" style="stroke:#A80036;stroke-width:1.0;"/><path d="M85.5938,266.7188 L83.1406,266.7188 L83.1406,256.4688 L80,256.4688 L80,254.3281 L88.7344,254.3281 L88.7344,256.4688 L85.5938,256.4688 L85.5938,266.7188 Z " fill="#000000"/><text fill="#000000" font-family="sans-serif" font-size="12" font-style="italic" lengthAdjust="spacing" textLength="39" x="107.75" y="257.1387">«PSM»</text><text fill="#000000" font-family="sans-serif" font-size="12" lengthAdjust="spacing" textLength="44" x="105.25" y="271.1074">Sensor</text><line style="stroke:#A80036;stroke-width:1.5;" x1="8" x2="214" y1="278.9375" y2="278.9375"/><rect fill="none" height="6" style="stroke:#C82930;stroke-width:1.0;" width="6" x="15" y="303.7422"/><text fill="#000000" font-family="sans-serif" font-size="11" lengthAdjust="spacing" textLength="90" x="27" y="309.9526">PIN : UInt8 = 10</text><line style="stroke:#A80036;stroke-width:1.0;stroke-dasharray:1.0,2.0;" x1="8" x2="81.5" y1="293.3398" y2="293.3398"/><text fill="#000000" font-family="sans-serif" font-size="11" lengthAdjust="spacing" textLength="59" x="81.5" y="296.6479">Properties</text><line style="stroke:#A80036;stroke-width:1.0;stroke-dasharray:1.0,2.0;" x1="140.5" x2="214" y1="293.3398" y2="293.3398"/><text fill="#000000" font-family="sans-serif" font-size="11" lengthAdjust="spacing" textLength="63" x="13" y="339.562">▶ ms25_tic</text><line style="stroke:#A80036;stroke-width:1.0;stroke-dasharray:1.0,2.0;" x1="8" x2="71.5" y1="322.9492" y2="322.9492"/><text fill="#000000" font-family="sans-serif" font-size="11" lengthAdjust="spacing" textLength="79" x="71.5" y="326.2573">▼ Port clock ▼</text><line style="stroke:#A80036;stroke-width:1.0;stroke-dasharray:1.0,2.0;" x1="150.5" x2="214" y1="322.9492" y2="322.9492"/><text fill="#000000" font-family="sans-serif" font-size="11" lengthAdjust="spacing" textLength="75" x="13" y="369.1714">◀ sensor_ON</text><text fill="#000000" font-family="sans-serif" font-size="11" lengthAdjust="spacing" textLength="79" x="13" y="381.9761">◀ sensor_OFF</text><line style="stroke:#A80036;stroke-width:1.0;stroke-dasharray:1.0,2.0;" x1="8" x2="76.5" y1="352.5586" y2="352.5586"/><text fill="#000000" font-family="sans-serif" font-size="11" lengthAdjust="spacing" textLength="69" x="76.5" y="355.8667">▲ Port ctrl ▲</text><line style="stroke:#A80036;stroke-width:1.0;stroke-dasharray:1.0,2.0;" x1="145.5" x2="214" y1="352.5586" y2="352.5586"/><rect fill="#F24D5C" height="6" style="stroke:#C82930;stroke-width:1.0;" width="6" x="15" y="405.375"/><text fill="#000000" font-family="sans-serif" font-size="11" lengthAdjust="spacing" textLength="182" x="27" y="411.5854">setDigitalInput(pin : UInt8) : void</text><rect fill="#F24D5C" height="6" style="stroke:#C82930;stroke-width:1.0;" width="6" x="15" y="418.1797"/><text fill="#000000" font-family="sans-serif" font-size="11" lengthAdjust="spacing" textLength="140" x="27" y="424.3901">enoughWater() : Boolean</text><line style="stroke:#A80036;stroke-width:1.0;stroke-dasharray:1.0,2.0;" x1="8" x2="84" y1="394.9727" y2="394.9727"/><text fill="#000000" font-family="sans-serif" font-size="11" lengthAdjust="spacing" textLength="54" x="84" y="398.2808">Functions</text><line style="stroke:#A80036;stroke-width:1.0;stroke-dasharray:1.0,2.0;" x1="138" x2="214" y1="394.9727" y2="394.9727"/><!--MD5=[a95169970922befbaf60824f21aadd1a]
class Pump--><rect codeLine="50" fill="#FEFECE" filter="url(#f17q7guomne3v4)" height="147.5703" id="Pump" style="stroke:#A80036;stroke-width:1.5;" width="212" x="405" y="262"/><ellipse cx="489.25" cy="280.9688" fill="#F94918" rx="11" ry="11" style="stroke:#A80036;stroke-width:1.0;"/><path d="M490.0938,287.7188 L487.6406,287.7188 L487.6406,277.4688 L484.5,277.4688 L484.5,275.3281 L493.2344,275.3281 L493.2344,277.4688 L490.0938,277.4688 L490.0938,287.7188 Z " fill="#000000"/><text fill="#000000" font-family="sans-serif" font-size="12" font-style="italic" lengthAdjust="spacing" textLength="39" x="507.75" y="278.1387">«PSM»</text><text fill="#000000" font-family="sans-serif" font-size="12" lengthAdjust="spacing" textLength="35" x="509.75" y="292.1074">Pump</text><line style="stroke:#A80036;stroke-width:1.5;" x1="406" x2="616" y1="299.9375" y2="299.9375"/><rect fill="none" height="6" style="stroke:#C82930;stroke-width:1.0;" width="6" x="413" y="324.7422"/><text fill="#000000" font-family="sans-serif" font-size="11" lengthAdjust="spacing" textLength="83" x="425" y="330.9526">PIN : UInt8 = 7</text><line style="stroke:#A80036;stroke-width:1.0;stroke-dasharray:1.0,2.0;" x1="406" x2="481.5" y1="314.3398" y2="314.3398"/><text fill="#000000" font-family="sans-serif" font-size="11" lengthAdjust="spacing" textLength="59" x="481.5" y="317.6479">Properties</text><line style="stroke:#A80036;stroke-width:1.0;stroke-dasharray:1.0,2.0;" x1="540.5" x2="616" y1="314.3398" y2="314.3398"/><text fill="#000000" font-family="sans-serif" font-size="11" lengthAdjust="spacing" textLength="67" x="411" y="360.562">▶ pump_ON</text><text fill="#000000" font-family="sans-serif" font-size="11" lengthAdjust="spacing" textLength="71" x="411" y="373.3667">▶ pump_OFF</text><line style="stroke:#A80036;stroke-width:1.0;stroke-dasharray:1.0,2.0;" x1="406" x2="470" y1="343.9492" y2="343.9492"/><text fill="#000000" font-family="sans-serif" font-size="11" lengthAdjust="spacing" textLength="82" x="470" y="347.2573">▲ Port notify ▲</text><line style="stroke:#A80036;stroke-width:1.0;stroke-dasharray:1.0,2.0;" x1="552" x2="616" y1="343.9492" y2="343.9492"/><rect fill="#F24D5C" height="6" style="stroke:#C82930;stroke-width:1.0;" width="6" x="413" y="396.7656"/><text fill="#000000" font-family="sans-serif" font-size="11" lengthAdjust="spacing" textLength="186" x="425" y="402.9761">switch(value : DigitalState) : void</text><line style="stroke:#A80036;stroke-width:1.0;stroke-dasharray:1.0,2.0;" x1="406" x2="484" y1="386.3633" y2="386.3633"/><text fill="#000000" font-family="sans-serif" font-size="11" lengthAdjust="spacing" textLength="54" x="484" y="389.6714">Functions</text><line style="stroke:#A80036;stroke-width:1.0;stroke-dasharray:1.0,2.0;" x1="538" x2="616" y1="386.3633" y2="386.3633"/><!--MD5=[11d287f53ec09ac6b3e4ea7fc65dcad5]
reverse link TimerMsgs to PumpSystem--><path codeLine="59" d="M310,167.34 C310,180.07 310,193.38 310,206.68 " fill="none" id="TimerMsgs-backto-PumpSystem" style="stroke:#A80036;stroke-width:1.0;"/><polygon fill="none" points="303,167.21,310,147.21,317,167.21,303,167.21" style="stroke:#A80036;stroke-width:1.0;"/><!--MD5=[f317d5f4c4c8e3b57b0c2894e5d47ec5]
reverse link SensorMsgs to PumpSystem--><path codeLine="60" d="M164.61,135.45 C191.7,162.51 220.4,192.07 232,207 C239.5,216.66 246.88,227.09 253.93,237.67 " fill="none" id="SensorMsgs-backto-PumpSystem" style="stroke:#A80036;stroke-width:1.0;"/><polygon fill="none" points="159.52,140.26,150.27,121.2,169.39,130.33,159.52,140.26" style="stroke:#A80036;stroke-width:1.0;"/><!--MD5=[44ae1b9778d28d84b2459384a5362e08]
reverse link PumpMsgs to PumpSystem--><path codeLine="61" d="M453.46,135.91 C427.14,162.89 399.32,192.24 388,207 C380.55,216.7 373.21,227.16 366.19,237.76 " fill="none" id="PumpMsgs-backto-PumpSystem" style="stroke:#A80036;stroke-width:1.0;"/><polygon fill="none" points="448.82,130.65,467.82,121.27,458.81,140.45,448.82,130.65" style="stroke:#A80036;stroke-width:1.0;"/><!--MD5=[4855c88aabd7173933d6bf542ab265a3]
reverse link SensorMsgs to Sensor--><path codeLine="62" d="M107.23,141.12 C107.81,171.14 108.52,207.66 109.17,240.87 " fill="none" id="SensorMsgs-backto-Sensor" style="stroke:#A80036;stroke-width:1.0;"/><polygon fill="none" points="100.23,141.15,106.84,121.02,114.22,140.88,100.23,141.15" style="stroke:#A80036;stroke-width:1.0;"/><!--MD5=[44605ff2b10fecee87a22aca30ff0b93]
reverse link TimerMsgs to Sensor--><path codeLine="63" d="M244.09,163.12 C224.87,187.94 203.76,215.2 184.13,240.56 " fill="none" id="TimerMsgs-backto-Sensor" style="stroke:#A80036;stroke-width:1.0;"/><polygon fill="none" points="238.63,158.74,256.41,147.21,249.7,167.31,238.63,158.74" style="stroke:#A80036;stroke-width:1.0;"/><!--MD5=[b8085e7c400d5e83d6516810cca3e215]
reverse link PumpMsgs to Pump--><path codeLine="64" d="M511,141.27 C511,177.77 511,223.82 511,261.87 " fill="none" id="PumpMsgs-backto-Pump" style="stroke:#A80036;stroke-width:1.0;"/><polygon fill="none" points="504,141.02,511,121.02,518,141.02,504,141.02" style="stroke:#A80036;stroke-width:1.0;"/><text fill="#000000" font-family="sans-serif" font-size="14" lengthAdjust="spacing" textLength="291" x="163.5" y="491.0029">Things used in configuration PumpSystem</text><!--MD5=[05fb5b5b20390a2af4c7c50d21ad527c]
@startuml
caption Things used in configuration PumpSystem
class PumpSystem <<(T,#5BBF09)PIM>> {
..▼ Port sbcb ▼..
▶ sensor_ON
▶ sensor_OFF
..▼ Port sbca ▼..
▶ sensor_ON
▶ sensor_OFF
..▼ Port sacb ▼..
▶ sensor_ON
▶ sensor_OFF
..▼ Port saca ▼..
▶ sensor_ON
▶ sensor_OFF
..▼ Port pump ▼..
◀ pump_ON
◀ pump_OFF
}
class TimerMsgs <<(F,#BC74ED)Fragment>> {
..Messages..
-timer_start(id : UInt8, time : UInt32)
-timer_cancel(id : UInt8)
-timer_timeout(id : UInt8)
-ms25_tic()
-ms500_tic()
-ms1000_tic()
}
class SensorMsgs <<(F,#BC74ED)Fragment>> {
..Messages..
-sensor_ON()
-sensor_OFF()
}
class PumpMsgs <<(F,#BC74ED)Fragment>> {
..Messages..
-pump_ON()
-pump_OFF()
}
class Sensor <<(T,#F94918)PSM>> {
..Properties..
-PIN : UInt8 = 10
..▼ Port clock ▼..
▶ ms25_tic
..▲ Port ctrl ▲..
◀ sensor_ON
◀ sensor_OFF
..Functions..
-setDigitalInput(pin : UInt8) : void
-enoughWater() : Boolean
}
class Pump <<(T,#F94918)PSM>> {
..Properties..
-PIN : UInt8 = 7
..▲ Port notify ▲..
▶ pump_ON
▶ pump_OFF
..Functions..
-switch(value : DigitalState) : void
}
TimerMsgs <|- - PumpSystem
SensorMsgs <|- - PumpSystem
PumpMsgs <|- - PumpSystem
SensorMsgs <|- - Sensor
TimerMsgs <|- - Sensor
PumpMsgs <|- - Pump
@enduml

PlantUML version 1.2021.00(Sun Jan 10 07:25:05 BRT 2021)
(GPL source distribution)
Java Runtime: OpenJDK Runtime Environment
JVM: OpenJDK 64-Bit Server VM
Default Encoding: UTF-8
Language: pt
Country: BR
--></g></svg>