<?xml version="1.0" encoding="UTF-8" standalone="no"?><svg xmlns="http://www.w3.org/2000/svg" xmlns:xlink="http://www.w3.org/1999/xlink" contentScriptType="application/ecmascript" contentStyleType="text/css" height="239px" preserveAspectRatio="none" style="width:607px;height:239px;" version="1.1" viewBox="0 0 607 239" width="607px" zoomAndPan="magnify"><defs><filter height="300%" id="f1369sivyulkh2" width="300%" x="-1" y="-1"><feGaussianBlur result="blurOut" stdDeviation="2.0"/><feColorMatrix in="blurOut" result="blurOut2" type="matrix" values="0 0 0 0 0 0 0 0 0 0 0 0 0 0 0 0 0 0 .4 0"/><feOffset dx="4.0" dy="4.0" in="blurOut2" result="blurOut3"/><feBlend in="SourceGraphic" in2="blurOut3" mode="normal"/></filter></defs><g><!--MD5=[458343f33d143a30c7df3ad77c1be9dd]
class DigitalState--><rect codeLine="2" fill="#FEFECE" filter="url(#f1369sivyulkh2)" height="73.6094" id="DigitalState" style="stroke:#A80036;stroke-width:1.5;" width="105" x="23.5" y="7"/><ellipse cx="38.5" cy="23" fill="#24E5B2" rx="11" ry="11" style="stroke:#A80036;stroke-width:1.0;"/><path d="M42.6094,29 L34.8906,29 L34.8906,16.6094 L42.6094,16.6094 L42.6094,18.7656 L37.3438,18.7656 L37.3438,21.4375 L42.1094,21.4375 L42.1094,23.5938 L37.3438,23.5938 L37.3438,26.8438 L42.6094,26.8438 L42.6094,29 Z " fill="#000000"/><text fill="#000000" font-family="sans-serif" font-size="12" lengthAdjust="spacing" textLength="73" x="52.5" y="27.1543">DigitalState</text><line style="stroke:#A80036;stroke-width:1.5;" x1="24.5" x2="127.5" y1="39" y2="39"/><rect fill="none" height="6" style="stroke:#C82930;stroke-width:1.0;" width="6" x="31.5" y="47"/><text fill="#000000" font-family="sans-serif" font-size="11" lengthAdjust="spacing" textLength="24" x="43.5" y="53.2104">LOW</text><rect fill="none" height="6" style="stroke:#C82930;stroke-width:1.0;" width="6" x="31.5" y="59.8047"/><text fill="#000000" font-family="sans-serif" font-size="11" lengthAdjust="spacing" textLength="28" x="43.5" y="66.0151">HIGH</text><line style="stroke:#A80036;stroke-width:1.5;" x1="24.5" x2="127.5" y1="72.6094" y2="72.6094"/><path d="M6,149 L6,204.3984 A0,0 0 0 0 6,204.3984 L146,204.3984 A0,0 0 0 0 146,204.3984 L146,159 L136,149 L80,149 L76,81.01 L72,149 L6,149 A0,0 0 0 0 6,149 " fill="#FBFB77" filter="url(#f1369sivyulkh2)" style="stroke:#A80036;stroke-width:1.0;"/><path d="M136,149 L136,159 L146,159 L136,149 " fill="#FBFB77" style="stroke:#A80036;stroke-width:1.0;"/><text fill="#000000" font-family="sans-serif" font-size="13" font-weight="bold" lengthAdjust="spacing" textLength="97" x="12" y="166.0669">@c_byte_size</text><text fill="#000000" font-family="sans-serif" font-size="13" lengthAdjust="spacing" textLength="0" x="113" y="166.0669"/><text fill="#4169E1" font-family="sans-serif" font-size="13" lengthAdjust="spacing" textLength="18" x="113" y="166.0669">"1"</text><text fill="#000000" font-family="sans-serif" font-size="13" font-weight="bold" lengthAdjust="spacing" textLength="61" x="12" y="181.1997">@c_type</text><text fill="#000000" font-family="sans-serif" font-size="13" lengthAdjust="spacing" textLength="0" x="77" y="181.1997"/><text fill="#4169E1" font-family="sans-serif" font-size="13" lengthAdjust="spacing" textLength="54" x="77" y="181.1997">"uint8_t"</text><text fill="#000000" font-family="sans-serif" font-size="13" lengthAdjust="spacing" textLength="0" x="16" y="196.3325"/><!--MD5=[5ac05c6ae25d280af4f293aacbf6bdc9]
class UInt8--><rect codeLine="7" fill="#FEFECE" filter="url(#f1369sivyulkh2)" height="53.9375" id="UInt8" style="stroke:#A80036;stroke-width:1.5;" width="65" x="244.5" y="17"/><ellipse cx="259.5" cy="35.9688" fill="#D2E524" rx="11" ry="11" style="stroke:#A80036;stroke-width:1.0;"/><path d="M259.0938,31.7813 L259.0938,39.7656 L259.75,39.7656 Q261.1875,39.7656 261.7969,38.8594 Q262.4219,37.9375 262.4219,35.7656 Q262.4219,33.5938 261.7969,32.6875 Q261.1875,31.7813 259.75,31.7813 L259.0938,31.7813 Z M256.6406,29.5781 L259.2656,29.5781 Q262.2969,29.5781 263.625,31.0313 Q264.9688,32.4688 264.9688,35.7656 Q264.9688,39.0625 263.625,40.5156 Q262.2969,41.9688 259.2656,41.9688 L256.6406,41.9688 L256.6406,29.5781 Z " fill="#000000"/><text fill="#000000" font-family="sans-serif" font-size="12" font-style="italic" lengthAdjust="spacing" textLength="22" x="279" y="33.1387">«1»</text><text fill="#000000" font-family="sans-serif" font-size="12" lengthAdjust="spacing" textLength="33" x="273.5" y="47.1074">UInt8</text><line style="stroke:#A80036;stroke-width:1.5;" x1="245.5" x2="308.5" y1="54.9375" y2="54.9375"/><line style="stroke:#A80036;stroke-width:1.5;" x1="245.5" x2="308.5" y1="62.9375" y2="62.9375"/><path d="M181.5,141 L181.5,211.5313 A0,0 0 0 0 181.5,211.5313 L372.5,211.5313 A0,0 0 0 0 372.5,211.5313 L372.5,151 L362.5,141 L281,141 L277,71.09 L273,141 L181.5,141 A0,0 0 0 0 181.5,141 " fill="#FBFB77" filter="url(#f1369sivyulkh2)" style="stroke:#A80036;stroke-width:1.0;"/><path d="M362.5,141 L362.5,151 L372.5,151 L362.5,141 " fill="#FBFB77" style="stroke:#A80036;stroke-width:1.0;"/><text fill="#000000" font-family="sans-serif" font-size="13" font-weight="bold" lengthAdjust="spacing" textLength="111" x="187.5" y="158.0669">@type_checker</text><text fill="#000000" font-family="sans-serif" font-size="13" lengthAdjust="spacing" textLength="0" x="302.5" y="158.0669"/><text fill="#4169E1" font-family="sans-serif" font-size="13" lengthAdjust="spacing" textLength="55" x="302.5" y="158.0669">"Integer"</text><text fill="#000000" font-family="sans-serif" font-size="13" font-weight="bold" lengthAdjust="spacing" textLength="61" x="187.5" y="173.1997">@c_type</text><text fill="#000000" font-family="sans-serif" font-size="13" lengthAdjust="spacing" textLength="0" x="252.5" y="173.1997"/><text fill="#4169E1" font-family="sans-serif" font-size="13" lengthAdjust="spacing" textLength="54" x="252.5" y="173.1997">"uint8_t"</text><text fill="#000000" font-family="sans-serif" font-size="13" font-weight="bold" lengthAdjust="spacing" textLength="97" x="187.5" y="188.3325">@c_byte_size</text><text fill="#000000" font-family="sans-serif" font-size="13" lengthAdjust="spacing" textLength="0" x="288.5" y="188.3325"/><text fill="#4169E1" font-family="sans-serif" font-size="13" lengthAdjust="spacing" textLength="18" x="288.5" y="188.3325">"1"</text><text fill="#000000" font-family="sans-serif" font-size="13" lengthAdjust="spacing" textLength="0" x="191.5" y="203.4653"/><!--MD5=[aaffa1317e6e3b23ffb6fe8a245c1763]
class UInt32--><rect codeLine="10" fill="#FEFECE" filter="url(#f1369sivyulkh2)" height="53.9375" id="UInt32" style="stroke:#A80036;stroke-width:1.5;" width="73" x="466.5" y="17"/><ellipse cx="481.5" cy="35.9688" fill="#D2E524" rx="11" ry="11" style="stroke:#A80036;stroke-width:1.0;"/><path d="M481.0938,31.7813 L481.0938,39.7656 L481.75,39.7656 Q483.1875,39.7656 483.7969,38.8594 Q484.4219,37.9375 484.4219,35.7656 Q484.4219,33.5938 483.7969,32.6875 Q483.1875,31.7813 481.75,31.7813 L481.0938,31.7813 Z M478.6406,29.5781 L481.2656,29.5781 Q484.2969,29.5781 485.625,31.0313 Q486.9688,32.4688 486.9688,35.7656 Q486.9688,39.0625 485.625,40.5156 Q484.2969,41.9688 481.2656,41.9688 L478.6406,41.9688 L478.6406,29.5781 Z " fill="#000000"/><text fill="#000000" font-family="sans-serif" font-size="12" font-style="italic" lengthAdjust="spacing" textLength="22" x="505" y="33.1387">«4»</text><text fill="#000000" font-family="sans-serif" font-size="12" lengthAdjust="spacing" textLength="41" x="495.5" y="47.1074">UInt32</text><line style="stroke:#A80036;stroke-width:1.5;" x1="467.5" x2="538.5" y1="54.9375" y2="54.9375"/><line style="stroke:#A80036;stroke-width:1.5;" x1="467.5" x2="538.5" y1="62.9375" y2="62.9375"/><path d="M407.5,141 L407.5,211.5313 A0,0 0 0 0 407.5,211.5313 L598.5,211.5313 A0,0 0 0 0 598.5,211.5313 L598.5,151 L588.5,141 L507,141 L503,71.09 L499,141 L407.5,141 A0,0 0 0 0 407.5,141 " fill="#FBFB77" filter="url(#f1369sivyulkh2)" style="stroke:#A80036;stroke-width:1.0;"/><path d="M588.5,141 L588.5,151 L598.5,151 L588.5,141 " fill="#FBFB77" style="stroke:#A80036;stroke-width:1.0;"/><text fill="#000000" font-family="sans-serif" font-size="13" font-weight="bold" lengthAdjust="spacing" textLength="111" x="413.5" y="158.0669">@type_checker</text><text fill="#000000" font-family="sans-serif" font-size="13" lengthAdjust="spacing" textLength="0" x="528.5" y="158.0669"/><text fill="#4169E1" font-family="sans-serif" font-size="13" lengthAdjust="spacing" textLength="55" x="528.5" y="158.0669">"Integer"</text><text fill="#000000" font-family="sans-serif" font-size="13" font-weight="bold" lengthAdjust="spacing" textLength="61" x="413.5" y="173.1997">@c_type</text><text fill="#000000" font-family="sans-serif" font-size="13" lengthAdjust="spacing" textLength="0" x="478.5" y="173.1997"/><text fill="#4169E1" font-family="sans-serif" font-size="13" lengthAdjust="spacing" textLength="62" x="478.5" y="173.1997">"uint32_t"</text><text fill="#000000" font-family="sans-serif" font-size="13" font-weight="bold" lengthAdjust="spacing" textLength="97" x="413.5" y="188.3325">@c_byte_size</text><text fill="#000000" font-family="sans-serif" font-size="13" lengthAdjust="spacing" textLength="0" x="514.5" y="188.3325"/><text fill="#4169E1" font-family="sans-serif" font-size="13" lengthAdjust="spacing" textLength="18" x="514.5" y="188.3325">"4"</text><text fill="#000000" font-family="sans-serif" font-size="13" lengthAdjust="spacing" textLength="0" x="417.5" y="203.4653"/><text fill="#000000" font-family="sans-serif" font-size="14" lengthAdjust="spacing" textLength="314" x="139.25" y="230.5264">Datatypes used in configuration PumpSystem</text><!--MD5=[2b8765a303de193d631e368607d009c4]
@startuml
caption Datatypes used in configuration PumpSystem
class DigitalState <<(E,#24E5B2)>> {
-LOW
-HIGH
}
note bottom of DigitalState : <b>@c_byte_size</b> <color:royalBlue>"1"</color>\n<b>@c_type</b> <color:royalBlue>"uint8_t"</color>\n
class UInt8 <<(D,#D2E524)1>> {
}
note bottom of UInt8 : <b>@type_checker</b> <color:royalBlue>"Integer"</color>\n<b>@c_type</b> <color:royalBlue>"uint8_t"</color>\n<b>@c_byte_size</b> <color:royalBlue>"1"</color>\n
class UInt32 <<(D,#D2E524)4>> {
}
note bottom of UInt32 : <b>@type_checker</b> <color:royalBlue>"Integer"</color>\n<b>@c_type</b> <color:royalBlue>"uint32_t"</color>\n<b>@c_byte_size</b> <color:royalBlue>"4"</color>\n
@enduml

PlantUML version 1.2021.00(Sun Jan 10 07:25:05 BRT 2021)
(GPL source distribution)
Java Runtime: OpenJDK Runtime Environment
JVM: OpenJDK 64-Bit Server VM
Default Encoding: UTF-8
Language: pt
Country: BR
--></g></svg>