<?xml version="1.0" encoding="UTF-8" standalone="no"?><svg xmlns="http://www.w3.org/2000/svg" xmlns:xlink="http://www.w3.org/1999/xlink" contentScriptType="application/ecmascript" contentStyleType="text/css" height="384px" preserveAspectRatio="none" style="width:292px;height:384px;" version="1.1" viewBox="0 0 292 384" width="292px" zoomAndPan="magnify"><defs><filter height="300%" id="f1i707121z3we0" width="300%" x="-1" y="-1"><feGaussianBlur result="blurOut" stdDeviation="2.0"/><feColorMatrix in="blurOut" result="blurOut2" type="matrix" values="0 0 0 0 0 0 0 0 0 0 0 0 0 0 0 0 0 0 .4 0"/><feOffset dx="4.0" dy="4.0" in="blurOut2" result="blurOut3"/><feBlend in="SourceGraphic" in2="blurOut3" mode="normal"/></filter></defs><g><ellipse cx="143.5" cy="16" fill="#000000" filter="url(#f1i707121z3we0)" rx="10" ry="10" style="stroke:none;stroke-width:1.0;"/><rect fill="#FEFECE" filter="url(#f1i707121z3we0)" height="265.5625" rx="12.5" ry="12.5" style="stroke:#A80036;stroke-width:1.5;" width="273.22" x="7" y="86"/><rect fill="#FFFFFF" height="233.2656" rx="12.5" ry="12.5" style="stroke:#FFFFFF;stroke-width:1.0;" width="267.22" x="10" y="115.2969"/><line style="stroke:#A80036;stroke-width:1.5;" x1="7" x2="280.22" y1="112.2969" y2="112.2969"/><text fill="#000000" font-family="sans-serif" font-size="14" lengthAdjust="spacing" textLength="91" x="98.11" y="103.9951">PumpSystem</text><ellipse cx="98.22" cy="133.2969" fill="#000000" filter="url(#f1i707121z3we0)" rx="10" ry="10" style="stroke:none;stroke-width:1.0;"/><g id="PumpSystem.OFF"><rect fill="#FEFECE" filter="url(#f1i707121z3we0)" height="50.2656" rx="12.5" ry="12.5" style="stroke:#A80036;stroke-width:1.5;" width="88" x="54.22" y="180.2969"/><line style="stroke:#A80036;stroke-width:1.5;" x1="54.22" x2="142.22" y1="206.5938" y2="206.5938"/><text fill="#000000" font-family="sans-serif" font-size="14" lengthAdjust="spacing" textLength="27" x="84.72" y="198.292">OFF</text><text fill="#000000" font-family="sans-serif" font-size="12" lengthAdjust="spacing" textLength="68" x="59.22" y="222.7324">entry / ...\n</text></g><g id="PumpSystem.OFF.ON"><rect fill="#FEFECE" filter="url(#f1i707121z3we0)" height="50.2656" rx="12.5" ry="12.5" style="stroke:#A80036;stroke-width:1.5;" width="88" x="54.22" y="283.2969"/><line style="stroke:#A80036;stroke-width:1.5;" x1="54.22" x2="142.22" y1="309.5938" y2="309.5938"/><text fill="#000000" font-family="sans-serif" font-size="14" lengthAdjust="spacing" textLength="21" x="87.72" y="301.292">ON</text><text fill="#000000" font-family="sans-serif" font-size="12" lengthAdjust="spacing" textLength="68" x="59.22" y="325.7324">entry / ...\n</text></g><!--MD5=[d2d441d32c69e74af1ceddc6068f81df]
link OFF to ON--><path d="M53.95,223.1069 C43.34,229.3469 33.33,237.5969 27.22,248.2969 C18,264.4669 31.77,278.1069 49.56,288.1869 " fill="none" id="OFF-to-ON" style="stroke:#A80036;stroke-width:1.0;"/><polygon fill="#A80036" points="54.15,290.6769,48.1448,282.8706,49.7545,288.2936,44.3316,289.9034,54.15,290.6769" style="stroke:#A80036;stroke-width:1.0;"/><text fill="#000000" font-family="sans-serif" font-size="13" lengthAdjust="spacing" textLength="119" x="28.22" y="261.3638">e:sbcb?sensor_ON</text><!--MD5=[f42c3279df6b631060a080b66912768d]
link ON to OFF--><path d="M136.11,283.2669 C146.84,273.2969 154.18,261.0769 148.22,248.2969 C145.88,243.2569 142.6,238.6169 138.83,234.3969 " fill="none" id="ON-to-OFF" style="stroke:#A80036;stroke-width:1.0;"/><polygon fill="#A80036" points="135.24,230.6369,138.5513,239.9124,138.6886,234.2572,144.3438,234.3946,135.24,230.6369" style="stroke:#A80036;stroke-width:1.0;"/><text fill="#000000" font-family="sans-serif" font-size="13" lengthAdjust="spacing" textLength="119" x="151.22" y="261.3638">e:sbcb?sensor_ON</text><!--MD5=[5962f109e0c7cf49550d9694fa03813e]
link *start*PumpSystem to OFF--><path d="M98.22,143.4469 C98.22,151.4869 98.22,163.6269 98.22,174.9469 " fill="none" id="*start*PumpSystem-to-OFF" style="stroke:#A80036;stroke-width:1.0;"/><polygon fill="#A80036" points="98.22,180.0769,102.22,171.0769,98.22,175.0769,94.22,171.0769,98.22,180.0769" style="stroke:#A80036;stroke-width:1.0;"/><!--MD5=[b98da2ff0b273850b912d6e87e095986]
link *start to PumpSystem--><path d="M143.5,26.16 C143.5,37.23 143.5,57.26 143.5,80.34 " fill="none" id="*start-to-PumpSystem" style="stroke:#A80036;stroke-width:1.0;"/><polygon fill="#A80036" points="143.5,85.62,147.5,76.62,143.5,80.62,139.5,76.62,143.5,85.62" style="stroke:#A80036;stroke-width:1.0;"/><text fill="#000000" font-family="sans-serif" font-size="14" lengthAdjust="spacing" textLength="211" x="34.11" y="375.5576">Behavior of thing PumpSystem</text><!--MD5=[d06158a29ad3e5b6109aa17a21d6c01d]
@startuml
skinparam defaultTextAlignment left
caption Behavior of thing PumpSystem
[*] - -> PumpSystem
state PumpSystem{
state OFF{
	OFF : entry / ...\n

OFF - -> ON : e:sbcb?sensor_ON
}
state ON{
	ON : entry / ...\n

ON - -> OFF : e:sbcb?sensor_ON
}
[*] - -> OFF
}
@enduml

PlantUML version 1.2021.00(Sun Jan 10 07:25:05 BRT 2021)
(GPL source distribution)
Java Runtime: OpenJDK Runtime Environment
JVM: OpenJDK 64-Bit Server VM
Default Encoding: UTF-8
Language: pt
Country: BR
--></g></svg>