<?xml version="1.0" encoding="UTF-8" standalone="no"?><svg xmlns="http://www.w3.org/2000/svg" xmlns:xlink="http://www.w3.org/1999/xlink" contentScriptType="application/ecmascript" contentStyleType="text/css" height="446px" preserveAspectRatio="none" style="width:496px;height:446px;" version="1.1" viewBox="0 0 496 446" width="496px" zoomAndPan="magnify"><defs><filter height="300%" id="f17uay5h0uwdhh" width="300%" x="-1" y="-1"><feGaussianBlur result="blurOut" stdDeviation="2.0"/><feColorMatrix in="blurOut" result="blurOut2" type="matrix" values="0 0 0 0 0 0 0 0 0 0 0 0 0 0 0 0 0 0 .4 0"/><feOffset dx="4.0" dy="4.0" in="blurOut2" result="blurOut3"/><feBlend in="SourceGraphic" in2="blurOut3" mode="normal"/></filter></defs><g><ellipse cx="246" cy="16" fill="#000000" filter="url(#f17uay5h0uwdhh)" rx="10" ry="10" style="stroke:none;stroke-width:1.0;"/><rect fill="#FEFECE" filter="url(#f17uay5h0uwdhh)" height="328.2344" rx="12.5" ry="12.5" style="stroke:#A80036;stroke-width:1.5;" width="477.89" x="7" y="86"/><rect fill="#FFFFFF" height="263" rx="12.5" ry="12.5" style="stroke:#FFFFFF;stroke-width:1.0;" width="471.89" x="10" y="148.2344"/><line style="stroke:#A80036;stroke-width:1.5;" x1="7" x2="484.89" y1="145.2344" y2="145.2344"/><line style="stroke:#A80036;stroke-width:1.5;" x1="7" x2="484.89" y1="112.2969" y2="112.2969"/><text fill="#000000" font-family="sans-serif" font-size="14" lengthAdjust="spacing" textLength="49" x="221.445" y="103.9951">Sensor</text><text fill="#000000" font-family="sans-serif" font-size="12" lengthAdjust="spacing" textLength="165" x="12" y="123.4355">entry / setDigitalInput(PIN)</text><text fill="#000000" font-family="sans-serif" font-size="12" lengthAdjust="spacing" textLength="0" x="16" y="137.4043"/><ellipse cx="141.89" cy="166.2344" fill="#000000" filter="url(#f17uay5h0uwdhh)" rx="10" ry="10" style="stroke:none;stroke-width:1.0;"/><g id="Sensor.OFF_1"><rect fill="#FEFECE" filter="url(#f17uay5h0uwdhh)" height="50" rx="12.5" ry="12.5" style="stroke:#A80036;stroke-width:1.5;" width="63" x="110.39" y="213.2344"/><line style="stroke:#A80036;stroke-width:1.5;" x1="110.39" x2="173.39" y1="239.5313" y2="239.5313"/><text fill="#000000" font-family="sans-serif" font-size="14" lengthAdjust="spacing" textLength="43" x="120.39" y="231.2295">OFF_1</text></g><g id="Sensor.OFF_1.ON_1"><rect fill="#FEFECE" filter="url(#f17uay5h0uwdhh)" height="50" rx="12.5" ry="12.5" style="stroke:#A80036;stroke-width:1.5;" width="57" x="113.39" y="346.2344"/><line style="stroke:#A80036;stroke-width:1.5;" x1="113.39" x2="170.39" y1="372.5313" y2="372.5313"/><text fill="#000000" font-family="sans-serif" font-size="14" lengthAdjust="spacing" textLength="37" x="123.39" y="364.2295">ON_1</text></g><!--MD5=[f8a79a40e851f4a3eb5d7da2a0a7d612]
link OFF_1 to ON_1--><path d="M110.36,241.5544 C83.99,245.3444 47.87,255.2944 29.89,281.2344 C18,298.4044 18,311.0644 29.89,328.2344 C47.36,353.4344 81.94,363.5444 108.08,367.5744 " fill="none" id="OFF_1-to-ON_1" style="stroke:#A80036;stroke-width:1.0;"/><polygon fill="#A80036" points="113.18,368.3044,104.8277,363.0853,108.2291,367.6053,103.7091,371.0067,113.18,368.3044" style="stroke:#A80036;stroke-width:1.0;"/><text fill="#000000" font-family="sans-serif" font-size="13" lengthAdjust="spacing" textLength="202" x="30.89" y="294.3013">clock?ms25_tic[enoughWater()]</text><text fill="#000000" font-family="sans-serif" font-size="13" lengthAdjust="spacing" textLength="148" x="30.89" y="309.4341">action ctrl!sensor_ON()</text><text fill="#000000" font-family="sans-serif" font-size="13" lengthAdjust="spacing" textLength="0" x="34.89" y="324.5669"/><!--MD5=[7223bcaed6a759a291b4d261af2faf3f]
link ON_1 to OFF_1--><path d="M170.58,365.5744 C192.06,360.4244 220.03,349.7944 233.89,328.2344 C245.19,310.6644 245.19,298.8044 233.89,281.2344 C221.73,262.3044 198.69,251.8044 178.71,246.0344 " fill="none" id="ON_1-to-OFF_1" style="stroke:#A80036;stroke-width:1.0;"/><polygon fill="#A80036" points="173.71,244.6644,181.3435,250.8877,178.5345,245.9775,183.4446,243.1685,173.71,244.6644" style="stroke:#A80036;stroke-width:1.0;"/><text fill="#000000" font-family="sans-serif" font-size="13" lengthAdjust="spacing" textLength="227" x="242.89" y="294.3013">clock?ms25_tic[not enoughWater()]</text><text fill="#000000" font-family="sans-serif" font-size="13" lengthAdjust="spacing" textLength="152" x="242.89" y="309.4341">action ctrl!sensor_OFF()</text><text fill="#000000" font-family="sans-serif" font-size="13" lengthAdjust="spacing" textLength="0" x="246.89" y="324.5669"/><!--MD5=[ed95226a96b656efac19853d98797586]
link *start*Sensor to OFF_1--><path d="M141.89,176.3844 C141.89,184.4244 141.89,196.5644 141.89,207.8844 " fill="none" id="*start*Sensor-to-OFF_1" style="stroke:#A80036;stroke-width:1.0;"/><polygon fill="#A80036" points="141.89,213.0144,145.89,204.0144,141.89,208.0144,137.89,204.0144,141.89,213.0144" style="stroke:#A80036;stroke-width:1.0;"/><!--MD5=[82bf4279c610c804bc51f8dbb770f191]
link *start to Sensor--><path d="M246,26.09 C246,37.08 246,57.07 246,80.73 " fill="none" id="*start-to-Sensor" style="stroke:#A80036;stroke-width:1.0;"/><polygon fill="#A80036" points="246,85.83,250,76.83,246,80.83,242,76.83,246,85.83" style="stroke:#A80036;stroke-width:1.0;"/><text fill="#000000" font-family="sans-serif" font-size="14" lengthAdjust="spacing" textLength="169" x="157.445" y="438.2295">Behavior of thing Sensor</text><!--MD5=[fc40ed696b4caeb30969a374a2628d2e]
@startuml
skinparam defaultTextAlignment left
caption Behavior of thing Sensor
[*] - -> Sensor
state Sensor{
state OFF_1{

OFF_1 - -> ON_1 : clock?ms25_tic[enoughWater()]\naction ctrl!sensor_ON()\n
}
state ON_1{

ON_1 - -> OFF_1 : clock?ms25_tic[not enoughWater()]\naction ctrl!sensor_OFF()\n
}
[*] - -> OFF_1
	Sensor : entry / setDigitalInput(PIN)\n
}
@enduml

PlantUML version 1.2021.00(Sun Jan 10 07:25:05 BRT 2021)
(GPL source distribution)
Java Runtime: OpenJDK Runtime Environment
JVM: OpenJDK 64-Bit Server VM
Default Encoding: UTF-8
Language: pt
Country: BR
--></g></svg>