<?xml version="1.0" encoding="UTF-8" standalone="no"?><svg xmlns="http://www.w3.org/2000/svg" xmlns:xlink="http://www.w3.org/1999/xlink" contentScriptType="application/ecmascript" contentStyleType="text/css" height="384px" preserveAspectRatio="none" style="width:267px;height:384px;" version="1.1" viewBox="0 0 267 384" width="267px" zoomAndPan="magnify"><defs><filter height="300%" id="f16mvf9nmq1pfk" width="300%" x="-1" y="-1"><feGaussianBlur result="blurOut" stdDeviation="2.0"/><feColorMatrix in="blurOut" result="blurOut2" type="matrix" values="0 0 0 0 0 0 0 0 0 0 0 0 0 0 0 0 0 0 .4 0"/><feOffset dx="4.0" dy="4.0" in="blurOut2" result="blurOut3"/><feBlend in="SourceGraphic" in2="blurOut3" mode="normal"/></filter></defs><g><ellipse cx="131" cy="16" fill="#000000" filter="url(#f16mvf9nmq1pfk)" rx="10" ry="10" style="stroke:none;stroke-width:1.0;"/><rect fill="#FEFECE" filter="url(#f16mvf9nmq1pfk)" height="265.5625" rx="12.5" ry="12.5" style="stroke:#A80036;stroke-width:1.5;" width="248.48" x="7" y="86"/><rect fill="#FFFFFF" height="233.2656" rx="12.5" ry="12.5" style="stroke:#FFFFFF;stroke-width:1.0;" width="242.48" x="10" y="115.2969"/><line style="stroke:#A80036;stroke-width:1.5;" x1="7" x2="255.48" y1="112.2969" y2="112.2969"/><text fill="#000000" font-family="sans-serif" font-size="14" lengthAdjust="spacing" textLength="40" x="111.24" y="103.9951">Pump</text><ellipse cx="89.48" cy="133.2969" fill="#000000" filter="url(#f16mvf9nmq1pfk)" rx="10" ry="10" style="stroke:none;stroke-width:1.0;"/><g id="Pump.OFF_2"><rect fill="#FEFECE" filter="url(#f16mvf9nmq1pfk)" height="50.2656" rx="12.5" ry="12.5" style="stroke:#A80036;stroke-width:1.5;" width="88" x="45.48" y="180.2969"/><line style="stroke:#A80036;stroke-width:1.5;" x1="45.48" x2="133.48" y1="206.5938" y2="206.5938"/><text fill="#000000" font-family="sans-serif" font-size="14" lengthAdjust="spacing" textLength="43" x="67.98" y="198.292">OFF_2</text><text fill="#000000" font-family="sans-serif" font-size="12" lengthAdjust="spacing" textLength="68" x="50.48" y="222.7324">entry / ...\n</text></g><g id="Pump.OFF_2.ON_2"><rect fill="#FEFECE" filter="url(#f16mvf9nmq1pfk)" height="50.2656" rx="12.5" ry="12.5" style="stroke:#A80036;stroke-width:1.5;" width="88" x="45.48" y="283.2969"/><line style="stroke:#A80036;stroke-width:1.5;" x1="45.48" x2="133.48" y1="309.5938" y2="309.5938"/><text fill="#000000" font-family="sans-serif" font-size="14" lengthAdjust="spacing" textLength="37" x="70.98" y="301.292">ON_2</text><text fill="#000000" font-family="sans-serif" font-size="12" lengthAdjust="spacing" textLength="68" x="50.48" y="325.7324">entry / ...\n</text></g><!--MD5=[96b9df69dc11496ebfdf1d8176f3ca5f]
link OFF_2 to ON_2--><path d="M45.19,226.9069 C37.27,232.6769 30.09,239.7569 25.48,248.2969 C18,262.1569 27.21,274.5069 40.77,284.2869 " fill="none" id="OFF_2-to-ON_2" style="stroke:#A80036;stroke-width:1.0;"/><polygon fill="#A80036" points="45.11,287.2369,39.9264,278.8625,40.9786,284.4206,35.4204,285.4728,45.11,287.2369" style="stroke:#A80036;stroke-width:1.0;"/><text fill="#000000" font-family="sans-serif" font-size="13" lengthAdjust="spacing" textLength="106" x="26.48" y="261.3638">notify?pump_ON</text><!--MD5=[b457397f75a59d80cf35b7a47a847912]
link ON_2 to OFF_2--><path d="M122.58,283.0869 C132.18,273.0069 138.81,260.7469 133.48,248.2969 C131.31,243.2469 128.21,238.5069 124.64,234.1669 " fill="none" id="ON_2-to-OFF_2" style="stroke:#A80036;stroke-width:1.0;"/><polygon fill="#A80036" points="121.24,230.2969,124.1739,239.6986,124.5396,234.0536,130.1846,234.4192,121.24,230.2969" style="stroke:#A80036;stroke-width:1.0;"/><text fill="#000000" font-family="sans-serif" font-size="13" lengthAdjust="spacing" textLength="110" x="135.48" y="261.3638">notify?pump_OFF</text><!--MD5=[346d044c03e74722597c582d8ac7f73d]
link *start*Pump to OFF_2--><path d="M89.48,143.4469 C89.48,151.4869 89.48,163.6269 89.48,174.9469 " fill="none" id="*start*Pump-to-OFF_2" style="stroke:#A80036;stroke-width:1.0;"/><polygon fill="#A80036" points="89.48,180.0769,93.48,171.0769,89.48,175.0769,85.48,171.0769,89.48,180.0769" style="stroke:#A80036;stroke-width:1.0;"/><!--MD5=[0d0afc382dfe8c82de32895cdc6f7a26]
link *start to Pump--><path d="M131,26.16 C131,37.23 131,57.26 131,80.34 " fill="none" id="*start-to-Pump" style="stroke:#A80036;stroke-width:1.0;"/><polygon fill="#A80036" points="131,85.62,135,76.62,131,80.62,127,76.62,131,85.62" style="stroke:#A80036;stroke-width:1.0;"/><text fill="#000000" font-family="sans-serif" font-size="14" lengthAdjust="spacing" textLength="160" x="47.24" y="375.5576">Behavior of thing Pump</text><!--MD5=[0d0c285a69bfd0d9e48ded5eab648b7e]
@startuml
skinparam defaultTextAlignment left
caption Behavior of thing Pump
[*] - -> Pump
state Pump{
state OFF_2{
	OFF_2 : entry / ...\n

OFF_2 - -> ON_2 : notify?pump_ON
}
state ON_2{
	ON_2 : entry / ...\n

ON_2 - -> OFF_2 : notify?pump_OFF
}
[*] - -> OFF_2
}
@enduml

PlantUML version 1.2021.00(Sun Jan 10 07:25:05 BRT 2021)
(GPL source distribution)
Java Runtime: OpenJDK Runtime Environment
JVM: OpenJDK 64-Bit Server VM
Default Encoding: UTF-8
Language: pt
Country: BR
--></g></svg>