<?xml version="1.0" encoding="UTF-8" standalone="no"?><svg xmlns="http://www.w3.org/2000/svg" xmlns:xlink="http://www.w3.org/1999/xlink" contentScriptType="application/ecmascript" contentStyleType="text/css" height="360px" preserveAspectRatio="none" style="width:835px;height:360px;" version="1.1" viewBox="0 0 835 360" width="835px" zoomAndPan="magnify"><defs><filter height="300%" id="f33vlgjns6z6v" width="300%" x="-1" y="-1"><feGaussianBlur result="blurOut" stdDeviation="2.0"/><feColorMatrix in="blurOut" result="blurOut2" type="matrix" values="0 0 0 0 0 0 0 0 0 0 0 0 0 0 0 0 0 0 .4 0"/><feOffset dx="4.0" dy="4.0" in="blurOut2" result="blurOut3"/><feBlend in="SourceGraphic" in2="blurOut3" mode="normal"/></filter></defs><g><!--MD5=[df308f1131c719ed80e506dd1c3f93b3]
entity pumpSystem : PumpSystem--><rect fill="#FEFECE" filter="url(#f33vlgjns6z6v)" height="62.5938" style="stroke:#A80036;stroke-width:1.5;" width="235" x="296.5" y="7"/><rect fill="#FEFECE" height="10" style="stroke:#A80036;stroke-width:1.5;" width="15" x="511.5" y="12"/><rect fill="#FEFECE" height="2" style="stroke:#A80036;stroke-width:1.5;" width="4" x="509.5" y="14"/><rect fill="#FEFECE" height="2" style="stroke:#A80036;stroke-width:1.5;" width="4" x="509.5" y="18"/><text fill="#000000" font-family="sans-serif" font-size="14" font-style="italic" lengthAdjust="spacing" textLength="42" x="388" y="39.9951">«PIM»</text><text fill="#000000" font-family="sans-serif" font-size="14" lengthAdjust="spacing" textLength="195" x="311.5" y="56.292">pumpSystem : PumpSystem</text><!--MD5=[7ec66ed03f7d1e38b29a05822f2da25b]
entity sbcb : Sensor--><rect fill="#FEFECE" filter="url(#f33vlgjns6z6v)" height="62.5938" style="stroke:#A80036;stroke-width:1.5;" width="136" x="7" y="147"/><rect fill="#FEFECE" height="10" style="stroke:#A80036;stroke-width:1.5;" width="15" x="123" y="152"/><rect fill="#FEFECE" height="2" style="stroke:#A80036;stroke-width:1.5;" width="4" x="121" y="154"/><rect fill="#FEFECE" height="2" style="stroke:#A80036;stroke-width:1.5;" width="4" x="121" y="158"/><text fill="#000000" font-family="sans-serif" font-size="14" font-style="italic" lengthAdjust="spacing" textLength="47" x="46.5" y="179.9951">«PSM»</text><text fill="#000000" font-family="sans-serif" font-size="14" lengthAdjust="spacing" textLength="96" x="22" y="196.292">sbcb : Sensor</text><!--MD5=[f20cf9038a6c7c368960f43a02fd5795]
entity pump : Pump--><rect fill="#FEFECE" filter="url(#f33vlgjns6z6v)" height="62.5938" style="stroke:#A80036;stroke-width:1.5;" width="133" x="178.5" y="147"/><rect fill="#FEFECE" height="10" style="stroke:#A80036;stroke-width:1.5;" width="15" x="291.5" y="152"/><rect fill="#FEFECE" height="2" style="stroke:#A80036;stroke-width:1.5;" width="4" x="289.5" y="154"/><rect fill="#FEFECE" height="2" style="stroke:#A80036;stroke-width:1.5;" width="4" x="289.5" y="158"/><text fill="#000000" font-family="sans-serif" font-size="14" font-style="italic" lengthAdjust="spacing" textLength="47" x="216.5" y="179.9951">«PSM»</text><text fill="#000000" font-family="sans-serif" font-size="14" lengthAdjust="spacing" textLength="93" x="193.5" y="196.292">pump : Pump</text><!--MD5=[d5e2fb6c3c7730166123a453e3c95f1a]
entity sbca : Sensor--><rect fill="#FEFECE" filter="url(#f33vlgjns6z6v)" height="62.5938" style="stroke:#A80036;stroke-width:1.5;" width="135" x="346.5" y="147"/><rect fill="#FEFECE" height="10" style="stroke:#A80036;stroke-width:1.5;" width="15" x="461.5" y="152"/><rect fill="#FEFECE" height="2" style="stroke:#A80036;stroke-width:1.5;" width="4" x="459.5" y="154"/><rect fill="#FEFECE" height="2" style="stroke:#A80036;stroke-width:1.5;" width="4" x="459.5" y="158"/><text fill="#000000" font-family="sans-serif" font-size="14" font-style="italic" lengthAdjust="spacing" textLength="47" x="385.5" y="179.9951">«PSM»</text><text fill="#000000" font-family="sans-serif" font-size="14" lengthAdjust="spacing" textLength="95" x="361.5" y="196.292">sbca : Sensor</text><!--MD5=[1bbd4702494e988ce22215229213c52a]
entity sacb : Sensor--><rect fill="#FEFECE" filter="url(#f33vlgjns6z6v)" height="62.5938" style="stroke:#A80036;stroke-width:1.5;" width="135" x="516.5" y="147"/><rect fill="#FEFECE" height="10" style="stroke:#A80036;stroke-width:1.5;" width="15" x="631.5" y="152"/><rect fill="#FEFECE" height="2" style="stroke:#A80036;stroke-width:1.5;" width="4" x="629.5" y="154"/><rect fill="#FEFECE" height="2" style="stroke:#A80036;stroke-width:1.5;" width="4" x="629.5" y="158"/><text fill="#000000" font-family="sans-serif" font-size="14" font-style="italic" lengthAdjust="spacing" textLength="47" x="555.5" y="179.9951">«PSM»</text><text fill="#000000" font-family="sans-serif" font-size="14" lengthAdjust="spacing" textLength="95" x="531.5" y="196.292">sacb : Sensor</text><!--MD5=[9a6e392b431dd6ab31db7cac3fbc859a]
entity saca : Sensor--><rect fill="#FEFECE" filter="url(#f33vlgjns6z6v)" height="62.5938" style="stroke:#A80036;stroke-width:1.5;" width="134" x="687" y="147"/><rect fill="#FEFECE" height="10" style="stroke:#A80036;stroke-width:1.5;" width="15" x="801" y="152"/><rect fill="#FEFECE" height="2" style="stroke:#A80036;stroke-width:1.5;" width="4" x="799" y="154"/><rect fill="#FEFECE" height="2" style="stroke:#A80036;stroke-width:1.5;" width="4" x="799" y="158"/><text fill="#000000" font-family="sans-serif" font-size="14" font-style="italic" lengthAdjust="spacing" textLength="47" x="725.5" y="179.9951">«PSM»</text><text fill="#000000" font-family="sans-serif" font-size="14" lengthAdjust="spacing" textLength="94" x="702" y="196.292">saca : Sensor</text><!--MD5=[1bfc463d4b7b2bceea9aef8616727621]
entity Timer--><path d="M478.5,291 L478.5,315 M478.5,303 L495.5,303 " fill="none" filter="url(#f33vlgjns6z6v)" style="stroke:#A80036;stroke-width:1.5;"/><ellipse cx="507.5" cy="303" fill="#FEFECE" filter="url(#f33vlgjns6z6v)" rx="12" ry="12" style="stroke:#A80036;stroke-width:1.5;"/><text fill="#000000" font-family="sans-serif" font-size="14" lengthAdjust="spacing" textLength="39" x="479.5" y="331.9951">Timer</text><!--MD5=[c65d1e646483fbdcf33d575ba78c8778]
link pumpSystem : PumpSystem to sbca : Sensor--><path d="M414,70.13 C414,93 414,124.11 414,146.96 " fill="none" id="pumpSystem : PumpSystem-sbca : Sensor" style="stroke:#A80036;stroke-width:1.0;"/><text fill="#000000" font-family="sans-serif" font-size="13" lengthAdjust="spacing" textLength="80" x="415" y="113.0669">sbca =&gt; ctrl</text><path d="M421.0711,101.4814 A10,10 0 0 0 406.9289 101.4814" fill="#FFFFFF" style="stroke:#A80036;stroke-width:1.5;"/><ellipse cx="414" cy="108.5525" fill="#FFFFFF" rx="6" ry="6" style="stroke:#A80036;stroke-width:1.5;"/><!--MD5=[24cde5f30e0abbf0d1b314405b2e8800]
link pumpSystem : PumpSystem to pump : Pump--><path d="M346.01,70 C330.68,78.52 315.09,88.61 302,100 C286.75,113.26 273.18,131.3 263.12,146.64 " fill="none" id="pumpSystem : PumpSystem-pump : Pump" style="stroke:#A80036;stroke-width:1.0;"/><text fill="#000000" font-family="sans-serif" font-size="13" lengthAdjust="spacing" textLength="102" x="303" y="113.0669">pump =&gt; notify</text><path d="M311.976,100.6928 A10,10 0 0 0 302.6928 90.024" fill="#FFFFFF" style="stroke:#A80036;stroke-width:1.5;"/><ellipse cx="302" cy="100" fill="#FFFFFF" rx="6" ry="6" style="stroke:#A80036;stroke-width:1.5;"/><!--MD5=[0b11b5147347e1834e61418c8c7d250b]
link pumpSystem : PumpSystem to sbcb : Sensor--><path d="M296.34,65.25 C263.18,74.34 227.56,85.9 196,100 C167.76,112.62 138.49,131.2 115.81,147 " fill="none" id="pumpSystem : PumpSystem-sbcb : Sensor" style="stroke:#A80036;stroke-width:1.0;"/><text fill="#000000" font-family="sans-serif" font-size="13" lengthAdjust="spacing" textLength="80" x="197" y="113.0669">sbcb =&gt; ctrl</text><path d="M205.3404,103.5717 A10,10 0 0 0 199.5717 90.6596" fill="#FFFFFF" style="stroke:#A80036;stroke-width:1.5;"/><ellipse cx="196" cy="100" fill="#FFFFFF" rx="6" ry="6" style="stroke:#A80036;stroke-width:1.5;"/><!--MD5=[2bad3e3320dc9199994fafda16af6703]
link pumpSystem : PumpSystem to saca : Sensor--><path d="M529.1,70.06 C556.96,78.67 586.38,88.78 613,100 C644.4,113.23 677.9,131.46 704.36,146.91 " fill="none" id="pumpSystem : PumpSystem-saca : Sensor" style="stroke:#A80036;stroke-width:1.0;"/><text fill="#000000" font-family="sans-serif" font-size="13" lengthAdjust="spacing" textLength="80" x="649" y="113.0669">saca =&gt; ctrl</text><path d="M609.2305,90.7377 A10,10 0 0 0 603.7377 103.7695" fill="#FFFFFF" style="stroke:#A80036;stroke-width:1.5;"/><ellipse cx="613" cy="100" fill="#FFFFFF" rx="6" ry="6" style="stroke:#A80036;stroke-width:1.5;"/><!--MD5=[1ac3a0ce048264460bdd3f0e26f09f2c]
link pumpSystem : PumpSystem to sacb : Sensor--><path d="M463.24,70.31 C476.8,79.4 491.27,89.69 504,100 C521.73,114.36 540.12,131.95 554.78,146.74 " fill="none" id="pumpSystem : PumpSystem-sacb : Sensor" style="stroke:#A80036;stroke-width:1.0;"/><text fill="#000000" font-family="sans-serif" font-size="13" lengthAdjust="spacing" textLength="80" x="524" y="113.0669">sacb =&gt; ctrl</text><path d="M502.9554,90.0547 A10,10 0 0 0 494.0547 101.0446" fill="#FFFFFF" style="stroke:#A80036;stroke-width:1.5;"/><ellipse cx="504" cy="100" fill="#FFFFFF" rx="6" ry="6" style="stroke:#A80036;stroke-width:1.5;"/><!--MD5=[88a5469d62d4e61789b0937e2998cdee]
link sbcb : Sensor to Timer--><path d="M143.42,204.14 C149.35,206.16 155.27,208.14 161,210 C277.4,247.83 418.22,287.59 474.26,303.17 " fill="none" id="sbcb : Sensor-Timer" style="stroke:#A80036;stroke-width:1.0;stroke-dasharray:7.0,7.0;"/><text fill="#000000" font-family="sans-serif" font-size="13" lengthAdjust="spacing" textLength="32" x="310" y="253.0669">clock</text><!--MD5=[cf54d195315c85e987bae388e8c65839]
link sacb : Sensor to Timer--><path d="M564.07,210.1 C548.76,233.6 527.95,265.56 514.02,286.94 " fill="none" id="sacb : Sensor-Timer" style="stroke:#A80036;stroke-width:1.0;stroke-dasharray:7.0,7.0;"/><text fill="#000000" font-family="sans-serif" font-size="13" lengthAdjust="spacing" textLength="32" x="546" y="253.0669">clock</text><!--MD5=[786247423a34d8c5624790bcbd478d07]
link sbca : Sensor to Timer--><path d="M433.93,210.1 C449.24,233.6 470.05,265.56 483.98,286.94 " fill="none" id="sbca : Sensor-Timer" style="stroke:#A80036;stroke-width:1.0;stroke-dasharray:7.0,7.0;"/><text fill="#000000" font-family="sans-serif" font-size="13" lengthAdjust="spacing" textLength="32" x="466" y="253.0669">clock</text><!--MD5=[7ca212804d4e899fc5f3a1ef86a17461]
link saca : Sensor to Timer--><path d="M694.21,210.1 C640.04,237.82 562.89,277.3 523.78,297.32 " fill="none" id="saca : Sensor-Timer" style="stroke:#A80036;stroke-width:1.0;stroke-dasharray:7.0,7.0;"/><text fill="#000000" font-family="sans-serif" font-size="13" lengthAdjust="spacing" textLength="32" x="635" y="253.0669">clock</text><text fill="#000000" font-family="sans-serif" font-size="14" lengthAdjust="spacing" textLength="387" x="217.5" y="352.4902">Instances and Connectors in configuration PumpSystem</text><!--MD5=[f85a6ab706d07a8a3a98aec778b8c8b7]
@startuml
caption Instances and Connectors in configuration PumpSystem
component [pumpSystem : PumpSystem]<<PIM>>
component [sbcb : Sensor]<<PSM>>
component [pump : Pump]<<PSM>>
component [sbca : Sensor]<<PSM>>
component [sacb : Sensor]<<PSM>>
component [saca : Sensor]<<PSM>>
boundary Timer
[pumpSystem : PumpSystem] -(0- [sbca : Sensor] : sbca => ctrl
[pumpSystem : PumpSystem] -(0- [pump : Pump] : pump => notify
[pumpSystem : PumpSystem] -(0- [sbcb : Sensor] : sbcb => ctrl
[pumpSystem : PumpSystem] -(0- [saca : Sensor] : saca => ctrl
[pumpSystem : PumpSystem] -(0- [sacb : Sensor] : sacb => ctrl
[sbcb : Sensor] .. Timer : clock
[sacb : Sensor] .. Timer : clock
[sbca : Sensor] .. Timer : clock
[saca : Sensor] .. Timer : clock
@enduml

PlantUML version 1.2021.00(Sun Jan 10 07:25:05 BRT 2021)
(GPL source distribution)
Java Runtime: OpenJDK Runtime Environment
JVM: OpenJDK 64-Bit Server VM
Default Encoding: UTF-8
Language: pt
Country: BR
--></g></svg>