<?xml version="1.0" encoding="UTF-8" standalone="no"?><svg xmlns="http://www.w3.org/2000/svg" xmlns:xlink="http://www.w3.org/1999/xlink" contentScriptType="application/ecmascript" contentStyleType="text/css" height="499px" preserveAspectRatio="none" style="width:427px;height:499px;" version="1.1" viewBox="0 0 427 499" width="427px" zoomAndPan="magnify"><defs><filter height="300%" id="fcd47ed8zg84s" width="300%" x="-1" y="-1"><feGaussianBlur result="blurOut" stdDeviation="2.0"/><feColorMatrix in="blurOut" result="blurOut2" type="matrix" values="0 0 0 0 0 0 0 0 0 0 0 0 0 0 0 0 0 0 .4 0"/><feOffset dx="4.0" dy="4.0" in="blurOut2" result="blurOut3"/><feBlend in="SourceGraphic" in2="blurOut3" mode="normal"/></filter></defs><g><!--MD5=[3ac097e75fc7a252e3993e40f921ba66]
class PumpSystem--><rect codeLine="2" fill="#FEFECE" filter="url(#fcd47ed8zg84s)" height="258.0078" id="PumpSystem" style="stroke:#A80036;stroke-width:1.5;" width="112" x="157" y="207"/><ellipse cx="172" cy="225.9688" fill="#5BBF09" rx="11" ry="11" style="stroke:#A80036;stroke-width:1.0;"/><path d="M172.8438,232.7188 L170.3906,232.7188 L170.3906,222.4688 L167.25,222.4688 L167.25,220.3281 L175.9844,220.3281 L175.9844,222.4688 L172.8438,222.4688 L172.8438,232.7188 Z " fill="#000000"/><text fill="#000000" font-family="sans-serif" font-size="12" font-style="italic" lengthAdjust="spacing" textLength="35" x="208.5" y="223.1387">«PIM»</text><text fill="#000000" font-family="sans-serif" font-size="12" lengthAdjust="spacing" textLength="80" x="186" y="237.1074">PumpSystem</text><line style="stroke:#A80036;stroke-width:1.5;" x1="158" x2="268" y1="244.9375" y2="244.9375"/><text fill="#000000" font-family="sans-serif" font-size="11" lengthAdjust="spacing" textLength="75" x="163" y="275.9526">▶ sensor_ON</text><text fill="#000000" font-family="sans-serif" font-size="11" lengthAdjust="spacing" textLength="79" x="163" y="288.7573">▶ sensor_OFF</text><line style="stroke:#A80036;stroke-width:1.0;stroke-dasharray:1.0,2.0;" x1="158" x2="174" y1="259.3398" y2="259.3398"/><text fill="#000000" font-family="sans-serif" font-size="11" lengthAdjust="spacing" textLength="78" x="174" y="262.6479">▼ Port sbcb ▼</text><line style="stroke:#A80036;stroke-width:1.0;stroke-dasharray:1.0,2.0;" x1="252" x2="268" y1="259.3398" y2="259.3398"/><text fill="#000000" font-family="sans-serif" font-size="11" lengthAdjust="spacing" textLength="75" x="163" y="318.3667">▶ sensor_ON</text><text fill="#000000" font-family="sans-serif" font-size="11" lengthAdjust="spacing" textLength="79" x="163" y="331.1714">▶ sensor_OFF</text><line style="stroke:#A80036;stroke-width:1.0;stroke-dasharray:1.0,2.0;" x1="158" x2="174" y1="301.7539" y2="301.7539"/><text fill="#000000" font-family="sans-serif" font-size="11" lengthAdjust="spacing" textLength="78" x="174" y="305.062">▼ Port sbca ▼</text><line style="stroke:#A80036;stroke-width:1.0;stroke-dasharray:1.0,2.0;" x1="252" x2="268" y1="301.7539" y2="301.7539"/><text fill="#000000" font-family="sans-serif" font-size="11" lengthAdjust="spacing" textLength="75" x="163" y="360.7808">▶ sensor_ON</text><text fill="#000000" font-family="sans-serif" font-size="11" lengthAdjust="spacing" textLength="79" x="163" y="373.5854">▶ sensor_OFF</text><line style="stroke:#A80036;stroke-width:1.0;stroke-dasharray:1.0,2.0;" x1="158" x2="174" y1="344.168" y2="344.168"/><text fill="#000000" font-family="sans-serif" font-size="11" lengthAdjust="spacing" textLength="78" x="174" y="347.4761">▼ Port sacb ▼</text><line style="stroke:#A80036;stroke-width:1.0;stroke-dasharray:1.0,2.0;" x1="252" x2="268" y1="344.168" y2="344.168"/><text fill="#000000" font-family="sans-serif" font-size="11" lengthAdjust="spacing" textLength="75" x="163" y="403.1948">▶ sensor_ON</text><text fill="#000000" font-family="sans-serif" font-size="11" lengthAdjust="spacing" textLength="79" x="163" y="415.9995">▶ sensor_OFF</text><line style="stroke:#A80036;stroke-width:1.0;stroke-dasharray:1.0,2.0;" x1="158" x2="174" y1="386.582" y2="386.582"/><text fill="#000000" font-family="sans-serif" font-size="11" lengthAdjust="spacing" textLength="78" x="174" y="389.8901">▼ Port saca ▼</text><line style="stroke:#A80036;stroke-width:1.0;stroke-dasharray:1.0,2.0;" x1="252" x2="268" y1="386.582" y2="386.582"/><text fill="#000000" font-family="sans-serif" font-size="11" lengthAdjust="spacing" textLength="67" x="163" y="445.6089">◀ pump_ON</text><text fill="#000000" font-family="sans-serif" font-size="11" lengthAdjust="spacing" textLength="71" x="163" y="458.4136">◀ pump_OFF</text><line style="stroke:#A80036;stroke-width:1.0;stroke-dasharray:1.0,2.0;" x1="158" x2="171.5" y1="428.9961" y2="428.9961"/><text fill="#000000" font-family="sans-serif" font-size="11" lengthAdjust="spacing" textLength="83" x="171.5" y="432.3042">▼ Port pump ▼</text><line style="stroke:#A80036;stroke-width:1.0;stroke-dasharray:1.0,2.0;" x1="254.5" x2="268" y1="428.9961" y2="428.9961"/><!--MD5=[c9010b2482425b808f4e9edc26ded801]
class TimerMsgs--><rect codeLine="19" fill="#FEFECE" filter="url(#fcd47ed8zg84s)" height="139.5703" id="TimerMsgs" style="stroke:#A80036;stroke-width:1.5;" width="125" x="150.5" y="7"/><ellipse cx="175.85" cy="25.9688" fill="#BC74ED" rx="11" ry="11" style="stroke:#A80036;stroke-width:1.0;"/><path d="M180.0844,21.7344 L174.8031,21.7344 L174.8031,24.4063 L179.6,24.4063 L179.6,26.5625 L174.8031,26.5625 L174.8031,31.9688 L172.3656,31.9688 L172.3656,19.5781 L180.0844,19.5781 L180.0844,21.7344 Z " fill="#000000"/><text fill="#000000" font-family="sans-serif" font-size="12" font-style="italic" lengthAdjust="spacing" textLength="74" x="190.15" y="23.1387">«Fragment»</text><text fill="#000000" font-family="sans-serif" font-size="12" lengthAdjust="spacing" textLength="66" x="194.15" y="37.1074">TimerMsgs</text><line style="stroke:#A80036;stroke-width:1.5;" x1="151.5" x2="274.5" y1="44.9375" y2="44.9375"/><rect fill="#F24D5C" height="6" style="stroke:#C82930;stroke-width:1.0;" width="6" x="158.5" y="69.7422"/><text fill="#000000" font-family="sans-serif" font-size="11" lengthAdjust="spacing" textLength="83" x="170.5" y="75.9526">timer_start(...)</text><rect fill="#F24D5C" height="6" style="stroke:#C82930;stroke-width:1.0;" width="6" x="158.5" y="82.5469"/><text fill="#000000" font-family="sans-serif" font-size="11" lengthAdjust="spacing" textLength="92" x="170.5" y="88.7573">timer_cancel(...)</text><rect fill="#F24D5C" height="6" style="stroke:#C82930;stroke-width:1.0;" width="6" x="158.5" y="95.3516"/><text fill="#000000" font-family="sans-serif" font-size="11" lengthAdjust="spacing" textLength="99" x="170.5" y="101.562">timer_timeout(...)</text><rect fill="#F24D5C" height="6" style="stroke:#C82930;stroke-width:1.0;" width="6" x="158.5" y="108.1563"/><text fill="#000000" font-family="sans-serif" font-size="11" lengthAdjust="spacing" textLength="59" x="170.5" y="114.3667">ms25_tic()</text><rect fill="#F24D5C" height="6" style="stroke:#C82930;stroke-width:1.0;" width="6" x="158.5" y="120.9609"/><text fill="#000000" font-family="sans-serif" font-size="11" lengthAdjust="spacing" textLength="66" x="170.5" y="127.1714">ms500_tic()</text><rect fill="#F24D5C" height="6" style="stroke:#C82930;stroke-width:1.0;" width="6" x="158.5" y="133.7656"/><text fill="#000000" font-family="sans-serif" font-size="11" lengthAdjust="spacing" textLength="73" x="170.5" y="139.9761">ms1000_tic()</text><line style="stroke:#A80036;stroke-width:1.0;stroke-dasharray:1.0,2.0;" x1="151.5" x2="184" y1="59.3398" y2="59.3398"/><text fill="#000000" font-family="sans-serif" font-size="11" lengthAdjust="spacing" textLength="58" x="184" y="62.6479">Messages</text><line style="stroke:#A80036;stroke-width:1.0;stroke-dasharray:1.0,2.0;" x1="242" x2="274.5" y1="59.3398" y2="59.3398"/><!--MD5=[4410825dd1c8e00111cf877f756f324a]
class SensorMsgs--><rect codeLine="28" fill="#FEFECE" filter="url(#fcd47ed8zg84s)" height="88.3516" id="SensorMsgs" style="stroke:#A80036;stroke-width:1.5;" width="108" x="7" y="33"/><ellipse cx="22" cy="51.9688" fill="#BC74ED" rx="11" ry="11" style="stroke:#A80036;stroke-width:1.0;"/><path d="M26.2344,47.7344 L20.9531,47.7344 L20.9531,50.4063 L25.75,50.4063 L25.75,52.5625 L20.9531,52.5625 L20.9531,57.9688 L18.5156,57.9688 L18.5156,45.5781 L26.2344,45.5781 L26.2344,47.7344 Z " fill="#000000"/><text fill="#000000" font-family="sans-serif" font-size="12" font-style="italic" lengthAdjust="spacing" textLength="74" x="37" y="49.1387">«Fragment»</text><text fill="#000000" font-family="sans-serif" font-size="12" lengthAdjust="spacing" textLength="76" x="36" y="63.1074">SensorMsgs</text><line style="stroke:#A80036;stroke-width:1.5;" x1="8" x2="114" y1="70.9375" y2="70.9375"/><rect fill="#F24D5C" height="6" style="stroke:#C82930;stroke-width:1.0;" width="6" x="15" y="95.7422"/><text fill="#000000" font-family="sans-serif" font-size="11" lengthAdjust="spacing" textLength="71" x="27" y="101.9526">sensor_ON()</text><rect fill="#F24D5C" height="6" style="stroke:#C82930;stroke-width:1.0;" width="6" x="15" y="108.5469"/><text fill="#000000" font-family="sans-serif" font-size="11" lengthAdjust="spacing" textLength="75" x="27" y="114.7573">sensor_OFF()</text><line style="stroke:#A80036;stroke-width:1.0;stroke-dasharray:1.0,2.0;" x1="8" x2="32" y1="85.3398" y2="85.3398"/><text fill="#000000" font-family="sans-serif" font-size="11" lengthAdjust="spacing" textLength="58" x="32" y="88.6479">Messages</text><line style="stroke:#A80036;stroke-width:1.0;stroke-dasharray:1.0,2.0;" x1="90" x2="114" y1="85.3398" y2="85.3398"/><!--MD5=[97ee84f313fd3a4f0e0d3729e5217f2e]
class PumpMsgs--><rect codeLine="33" fill="#FEFECE" filter="url(#fcd47ed8zg84s)" height="88.3516" id="PumpMsgs" style="stroke:#A80036;stroke-width:1.5;" width="102" x="311" y="33"/><ellipse cx="326" cy="51.9688" fill="#BC74ED" rx="11" ry="11" style="stroke:#A80036;stroke-width:1.0;"/><path d="M330.2344,47.7344 L324.9531,47.7344 L324.9531,50.4063 L329.75,50.4063 L329.75,52.5625 L324.9531,52.5625 L324.9531,57.9688 L322.5156,57.9688 L322.5156,45.5781 L330.2344,45.5781 L330.2344,47.7344 Z " fill="#000000"/><text fill="#000000" font-family="sans-serif" font-size="12" font-style="italic" lengthAdjust="spacing" textLength="74" x="338" y="49.1387">«Fragment»</text><text fill="#000000" font-family="sans-serif" font-size="12" lengthAdjust="spacing" textLength="67" x="341.5" y="63.1074">PumpMsgs</text><line style="stroke:#A80036;stroke-width:1.5;" x1="312" x2="412" y1="70.9375" y2="70.9375"/><rect fill="#F24D5C" height="6" style="stroke:#C82930;stroke-width:1.0;" width="6" x="319" y="95.7422"/><text fill="#000000" font-family="sans-serif" font-size="11" lengthAdjust="spacing" textLength="63" x="331" y="101.9526">pump_ON()</text><rect fill="#F24D5C" height="6" style="stroke:#C82930;stroke-width:1.0;" width="6" x="319" y="108.5469"/><text fill="#000000" font-family="sans-serif" font-size="11" lengthAdjust="spacing" textLength="67" x="331" y="114.7573">pump_OFF()</text><line style="stroke:#A80036;stroke-width:1.0;stroke-dasharray:1.0,2.0;" x1="312" x2="333" y1="85.3398" y2="85.3398"/><text fill="#000000" font-family="sans-serif" font-size="11" lengthAdjust="spacing" textLength="58" x="333" y="88.6479">Messages</text><line style="stroke:#A80036;stroke-width:1.0;stroke-dasharray:1.0,2.0;" x1="391" x2="412" y1="85.3398" y2="85.3398"/><!--MD5=[97d46ae094d28e0d28828e4b8046fed1]
class Sensor--><rect codeLine="38" fill="#FEFECE" filter="url(#fcd47ed8zg84s)" height="117.9609" id="Sensor" style="stroke:#A80036;stroke-width:1.5;" width="91" x="23.5" y="277"/><ellipse cx="45.25" cy="295.9688" fill="#F94918" rx="11" ry="11" style="stroke:#A80036;stroke-width:1.0;"/><path d="M46.0938,302.7188 L43.6406,302.7188 L43.6406,292.4688 L40.5,292.4688 L40.5,290.3281 L49.2344,290.3281 L49.2344,292.4688 L46.0938,292.4688 L46.0938,302.7188 Z " fill="#000000"/><text fill="#000000" font-family="sans-serif" font-size="12" font-style="italic" lengthAdjust="spacing" textLength="39" x="63.25" y="293.1387">«PSM»</text><text fill="#000000" font-family="sans-serif" font-size="12" lengthAdjust="spacing" textLength="44" x="60.75" y="307.1074">Sensor</text><line style="stroke:#A80036;stroke-width:1.5;" x1="24.5" x2="113.5" y1="314.9375" y2="314.9375"/><text fill="#000000" font-family="sans-serif" font-size="11" lengthAdjust="spacing" textLength="63" x="29.5" y="345.9526">▶ ms25_tic</text><line style="stroke:#A80036;stroke-width:1.0;stroke-dasharray:1.0,2.0;" x1="24.5" x2="29.5" y1="329.3398" y2="329.3398"/><text fill="#000000" font-family="sans-serif" font-size="11" lengthAdjust="spacing" textLength="79" x="29.5" y="332.6479">▼ Port clock ▼</text><line style="stroke:#A80036;stroke-width:1.0;stroke-dasharray:1.0,2.0;" x1="108.5" x2="113.5" y1="329.3398" y2="329.3398"/><text fill="#000000" font-family="sans-serif" font-size="11" lengthAdjust="spacing" textLength="75" x="29.5" y="375.562">◀ sensor_ON</text><text fill="#000000" font-family="sans-serif" font-size="11" lengthAdjust="spacing" textLength="79" x="29.5" y="388.3667">◀ sensor_OFF</text><line style="stroke:#A80036;stroke-width:1.0;stroke-dasharray:1.0,2.0;" x1="24.5" x2="34.5" y1="358.9492" y2="358.9492"/><text fill="#000000" font-family="sans-serif" font-size="11" lengthAdjust="spacing" textLength="69" x="34.5" y="362.2573">▲ Port ctrl ▲</text><line style="stroke:#A80036;stroke-width:1.0;stroke-dasharray:1.0,2.0;" x1="103.5" x2="113.5" y1="358.9492" y2="358.9492"/><!--MD5=[a95169970922befbaf60824f21aadd1a]
class Pump--><rect codeLine="45" fill="#FEFECE" filter="url(#fcd47ed8zg84s)" height="88.3516" id="Pump" style="stroke:#A80036;stroke-width:1.5;" width="90" x="317" y="292"/><ellipse cx="342.35" cy="310.9688" fill="#F94918" rx="11" ry="11" style="stroke:#A80036;stroke-width:1.0;"/><path d="M343.1938,317.7188 L340.7406,317.7188 L340.7406,307.4688 L337.6,307.4688 L337.6,305.3281 L346.3344,305.3281 L346.3344,307.4688 L343.1938,307.4688 L343.1938,317.7188 Z " fill="#000000"/><text fill="#000000" font-family="sans-serif" font-size="12" font-style="italic" lengthAdjust="spacing" textLength="39" x="356.65" y="308.1387">«PSM»</text><text fill="#000000" font-family="sans-serif" font-size="12" lengthAdjust="spacing" textLength="35" x="358.65" y="322.1074">Pump</text><line style="stroke:#A80036;stroke-width:1.5;" x1="318" x2="406" y1="329.9375" y2="329.9375"/><text fill="#000000" font-family="sans-serif" font-size="11" lengthAdjust="spacing" textLength="67" x="323" y="360.9526">▶ pump_ON</text><text fill="#000000" font-family="sans-serif" font-size="11" lengthAdjust="spacing" textLength="71" x="323" y="373.7573">▶ pump_OFF</text><line style="stroke:#A80036;stroke-width:1.0;stroke-dasharray:1.0,2.0;" x1="318" x2="321" y1="344.3398" y2="344.3398"/><text fill="#000000" font-family="sans-serif" font-size="11" lengthAdjust="spacing" textLength="82" x="321" y="347.6479">▲ Port notify ▲</text><line style="stroke:#A80036;stroke-width:1.0;stroke-dasharray:1.0,2.0;" x1="403" x2="406" y1="344.3398" y2="344.3398"/><!--MD5=[11d287f53ec09ac6b3e4ea7fc65dcad5]
reverse link TimerMsgs to PumpSystem--><path codeLine="50" d="M213,167.34 C213,180.07 213,193.38 213,206.68 " fill="none" id="TimerMsgs-backto-PumpSystem" style="stroke:#A80036;stroke-width:1.0;"/><polygon fill="none" points="206,167.21,213,147.21,220,167.21,206,167.21" style="stroke:#A80036;stroke-width:1.0;"/><!--MD5=[f317d5f4c4c8e3b57b0c2894e5d47ec5]
reverse link SensorMsgs to PumpSystem--><path codeLine="51" d="M96.72,138.4 C114.63,168.68 136.74,206.05 156.85,240.06 " fill="none" id="SensorMsgs-backto-PumpSystem" style="stroke:#A80036;stroke-width:1.0;"/><polygon fill="none" points="90.6,141.79,86.44,121.02,102.65,134.67,90.6,141.79" style="stroke:#A80036;stroke-width:1.0;"/><!--MD5=[44ae1b9778d28d84b2459384a5362e08]
reverse link PumpMsgs to PumpSystem--><path codeLine="52" d="M326.9,138.54 C309.69,168.23 288.53,204.72 269.14,238.16 " fill="none" id="PumpMsgs-backto-PumpSystem" style="stroke:#A80036;stroke-width:1.0;"/><polygon fill="none" points="320.97,134.81,337.06,121.02,333.09,141.83,320.97,134.81" style="stroke:#A80036;stroke-width:1.0;"/><!--MD5=[4855c88aabd7173933d6bf542ab265a3]
reverse link SensorMsgs to Sensor--><path codeLine="53" d="M62.97,141.15 C64.26,182.62 65.93,236.48 67.19,276.89 " fill="none" id="SensorMsgs-backto-Sensor" style="stroke:#A80036;stroke-width:1.0;"/><polygon fill="none" points="55.96,141.22,62.34,121.02,69.96,140.79,55.96,141.22" style="stroke:#A80036;stroke-width:1.0;"/><!--MD5=[44605ff2b10fecee87a22aca30ff0b93]
reverse link TimerMsgs to Sensor--><path codeLine="54" d="M162.93,164.72 C154.88,178.83 146.67,193.3 139,207 C126.25,229.76 112.43,254.93 100.46,276.88 " fill="none" id="TimerMsgs-backto-Sensor" style="stroke:#A80036;stroke-width:1.0;"/><polygon fill="none" points="156.98,161.02,172.99,147.14,169.13,167.98,156.98,161.02" style="stroke:#A80036;stroke-width:1.0;"/><!--MD5=[b8085e7c400d5e83d6516810cca3e215]
reverse link PumpMsgs to Pump--><path codeLine="55" d="M362,141.29 C362,188.11 362,250.66 362,291.84 " fill="none" id="PumpMsgs-backto-Pump" style="stroke:#A80036;stroke-width:1.0;"/><polygon fill="none" points="355,141.02,362,121.02,369,141.02,355,141.02" style="stroke:#A80036;stroke-width:1.0;"/><text fill="#000000" font-family="sans-serif" font-size="14" lengthAdjust="spacing" textLength="291" x="61.5" y="491.0029">Things used in configuration PumpSystem</text><!--MD5=[648e609184250811aa42eb6fd393cc07]
@startuml
caption Things used in configuration PumpSystem
class PumpSystem <<(T,#5BBF09)PIM>> {
..▼ Port sbcb ▼..
▶ sensor_ON
▶ sensor_OFF
..▼ Port sbca ▼..
▶ sensor_ON
▶ sensor_OFF
..▼ Port sacb ▼..
▶ sensor_ON
▶ sensor_OFF
..▼ Port saca ▼..
▶ sensor_ON
▶ sensor_OFF
..▼ Port pump ▼..
◀ pump_ON
◀ pump_OFF
}
class TimerMsgs <<(F,#BC74ED)Fragment>> {
..Messages..
-timer_start(...)
-timer_cancel(...)
-timer_timeout(...)
-ms25_tic()
-ms500_tic()
-ms1000_tic()
}
class SensorMsgs <<(F,#BC74ED)Fragment>> {
..Messages..
-sensor_ON()
-sensor_OFF()
}
class PumpMsgs <<(F,#BC74ED)Fragment>> {
..Messages..
-pump_ON()
-pump_OFF()
}
class Sensor <<(T,#F94918)PSM>> {
..▼ Port clock ▼..
▶ ms25_tic
..▲ Port ctrl ▲..
◀ sensor_ON
◀ sensor_OFF
}
class Pump <<(T,#F94918)PSM>> {
..▲ Port notify ▲..
▶ pump_ON
▶ pump_OFF
}
TimerMsgs <|- - PumpSystem
SensorMsgs <|- - PumpSystem
PumpMsgs <|- - PumpSystem
SensorMsgs <|- - Sensor
TimerMsgs <|- - Sensor
PumpMsgs <|- - Pump
@enduml

PlantUML version 1.2021.00(Sun Jan 10 07:25:05 BRT 2021)
(GPL source distribution)
Java Runtime: OpenJDK Runtime Environment
JVM: OpenJDK 64-Bit Server VM
Default Encoding: UTF-8
Language: pt
Country: BR
--></g></svg>